<svg id="Слой_1" data-name="Слой 1" xmlns="http://www.w3.org/2000/svg" xmlns:xlink="http://www.w3.org/1999/xlink"
     viewBox="0 0 700 700">
    <defs>
        <style>.cls-1{stroke:#00c4cc;stroke-miterlimit:10;stroke-width:2px;fill:url(#Новый_образец_градиента_1);}
        </style>
        <linearGradient id="Новый_образец_градиента_1" x1="300.96663" y1="160.96026" x2="300.96663" y2="891.53476"
                        gradientUnits="userSpaceOnUse">
            <stop offset="0" stop-color="#02b9a7"/>
            <stop offset="1" stop-color="#00c4cc"/>
        </linearGradient>
    </defs>
    <path class="cls-1"
          d="M492.90547,13.41081A1030.39924,1030.39924,0,0,0,104.70522,462.72042a2.70936,2.70936,0,0,0,.25711,2.79663c17.86734,23.79281,52.00946,61.46569,106.26035,91.26578,12.76151,7.00965,24.05689,12.50841,34.49883,17.12595V434.6336a21.48576,21.48576,0,1,1,42.97152,0l.00083,152.76916a3.02087,3.02087,0,0,0,2.18928,2.86605c26.5832,7.56,49.53256,11.23291,81.24991,23.62a1.80933,1.80933,0,0,0,2.50222-1.597l.00081-356.10141a21.48576,21.48576,0,0,1,42.97153,0l.00006,377.55805a2.85025,2.85025,0,0,0,1.47051,2.50782c26.565,14.775,52.88682,32.98255,75.62092,50.42613a1.743,1.743,0,0,0,2.79931-1.442l-.00058-669.30051A3.00768,3.00768,0,0,0,492.90547,13.41081Z"/>
</svg>